HIERARCHY
ROOT pelvis
{
	OFFSET 0.000000 0.000000 0.649646
	CHANNELS 6 Xposition Yposition Zposition Xrotation Yrotation Zrotation
	JOINT spine
	{
		OFFSET 0.000000 0.000000 0.000000
		CHANNELS 6 Xposition Yposition Zposition Xrotation Yrotation Zrotation
		JOINT spine.001
		{
			OFFSET 0.000000 -0.011547 0.220338
			CHANNELS 3 Xrotation Yrotation Zrotation
			JOINT neck
			{
				OFFSET 0.000000 0.026889 0.218996
				CHANNELS 6 Xposition Yposition Zposition Xrotation Yrotation Zrotation
				JOINT face
				{
					OFFSET 0.000000 0.002647 0.151644
					CHANNELS 6 Xposition Yposition Zposition Xrotation Yrotation Zrotation
					End Site
					{
						OFFSET 0.000000 -0.023203 -0.006534
					}
				}
			}
			JOINT shoulder.L
			{
				OFFSET 0.000000 0.026889 0.218996
				CHANNELS 6 Xposition Yposition Zposition Yrotation Xrotation Zrotation
				JOINT upper_arm.L
				{
					OFFSET 0.140893 0.000000 0.000000
					CHANNELS 6 Xposition Yposition Zposition Xrotation Yrotation Zrotation
					JOINT forearm.L
					{
						OFFSET 0.213785 0.000097 0.000804
						CHANNELS 6 Xposition Yposition Zposition Xrotation Yrotation Zrotation
						End Site
						{
							OFFSET 0.164624 -0.002785 -0.001104
						}
					}
				}
			}
			JOINT shoulder.R
			{
				OFFSET 0.000000 0.026889 0.218996
				CHANNELS 6 Xposition Yposition Zposition Yrotation Xrotation Zrotation
				JOINT upper_arm.R
				{
					OFFSET -0.140893 0.000000 0.000000
					CHANNELS 6 Xposition Yposition Zposition Xrotation Yrotation Zrotation
					JOINT forearm.R
					{
						OFFSET -0.225596 0.000097 0.000804
						CHANNELS 6 Xposition Yposition Zposition Xrotation Yrotation Zrotation
						End Site
						{
							OFFSET -0.163367 -0.002763 -0.001104
						}
					}
				}
			}
		}
	}
	JOINT pelvis.L
	{
		OFFSET 0.000000 0.000000 0.000000
		CHANNELS 6 Xposition Yposition Zposition Yrotation Xrotation Zrotation
		End Site
		{
			OFFSET 0.091656 0.000000 0.000000
		}
	}
	JOINT pelvis.R
	{
		OFFSET 0.000000 0.000000 0.000000
		CHANNELS 6 Xposition Yposition Zposition Yrotation Xrotation Zrotation
		End Site
		{
			OFFSET -0.091656 0.000000 0.000000
		}
	}
	JOINT thigh.L
	{
		OFFSET 0.091656 0.000000 0.000000
		CHANNELS 6 Xposition Yposition Zposition Xrotation Yrotation Zrotation
		JOINT shin.L
		{
			OFFSET 0.015923 0.000000 -0.303835
			CHANNELS 6 Xposition Yposition Zposition Xrotation Yrotation Zrotation
			JOINT foot.L
			{
				OFFSET 0.014650 0.000000 -0.279542
				CHANNELS 3 Xrotation Yrotation Zrotation
				End Site
				{
					OFFSET 0.014826 -0.151169 -0.063478
				}
			}
			JOINT heel.02.L
			{
				OFFSET 0.014650 0.000000 -0.279542
				CHANNELS 3 Xrotation Yrotation Zrotation
				End Site
				{
					OFFSET -0.075834 0.028926 -0.069532
				}
			}
		}
	}
	JOINT thigh.R
	{
		OFFSET -0.091656 0.000000 0.000000
		CHANNELS 6 Xposition Yposition Zposition Xrotation Yrotation Zrotation
		JOINT shin.R
		{
			OFFSET -0.016083 0.000000 -0.306873
			CHANNELS 6 Xposition Yposition Zposition Xrotation Yrotation Zrotation
			JOINT foot.R
			{
				OFFSET -0.014609 0.000000 -0.278747
				CHANNELS 3 Xrotation Yrotation Zrotation
				End Site
				{
					OFFSET -0.014836 -0.151268 -0.063520
				}
			}
			JOINT heel.02.R
			{
				OFFSET -0.014609 0.000000 -0.278747
				CHANNELS 3 Xrotation Yrotation Zrotation
				End Site
				{
					OFFSET 0.068913 0.028926 -0.066921
				}
			}
		}
	}
}
MOTION
Frames: 11
Frame Time: 0.041667
-0.040376 -0.020328 0.628784 -0.000000 0.000000 -1.713989 -0.000000 0.000000 0.000000 10.452170 1.377965 -0.053567 9.998782 0.129039 1.050915 0.000000 0.026889 0.218996 47.519023 4.878498 1.518200 -0.000000 0.002647 0.151644 -8.906628 0.000001 0.000002 0.000000 0.026889 0.218996 -1.688743 0.003056 0.207349 0.140893 0.000000 0.000000 -46.870626 74.452593 59.257745 0.213785 0.000097 0.000804 11.212149 32.908555 -35.515010 -0.000000 0.026889 0.218996 -1.637798 0.002873 0.201078 -0.140893 0.000000 -0.000000 -52.863844 -67.812222 -72.764867 -0.225596 0.000097 0.000804 6.388654 -41.566154 15.014475 0.000000 -0.000000 0.000000 -1.600142 0.000001 0.000064 0.000000 -0.000000 0.000000 -1.600141 0.000000 0.000000 0.091621 -0.000000 0.002559 7.569615 3.492638 0.166429 0.015923 0.000000 -0.303835 -2.589158 -6.489850 -0.281696 -7.536791 2.221272 -5.988479 3.898161 -36.143899 -27.611345 -0.091621 -0.000000 -0.002559 5.930681 -11.247381 0.274832 -0.016083 -0.000000 -0.306873 2.841545 4.891457 -0.269739 -10.104517 2.559794 -2.881920 2.441208 32.620639 22.714752 
-0.040460 -0.020633 0.628830 -0.000000 0.000000 -1.871526 0.000000 0.000000 -0.000000 10.527179 1.433629 -0.056671 9.999210 0.107216 0.873286 0.000000 0.026889 0.218996 47.434936 4.816850 1.397322 -0.000000 0.002647 0.151644 -9.260621 -0.000000 -0.000001 -0.000000 0.026889 0.218996 -1.782417 0.003404 0.218775 0.140893 -0.000000 0.000000 -47.416912 74.411059 59.937785 0.213785 0.000097 0.000804 10.926781 33.182521 -34.313723 0.000000 0.026889 0.218996 -1.731516 0.003210 0.212525 -0.140893 -0.000000 -0.000000 -52.331591 -67.720274 -72.219729 -0.225596 0.000097 0.000804 6.033236 -41.851615 13.959915 0.000000 0.000000 0.000000 -1.581318 -0.000000 -0.000001 0.000000 0.000000 0.000000 -1.581280 -0.000000 -0.000000 0.091622 -0.000000 0.002529 7.611933 3.482881 0.168013 0.015923 -0.000000 -0.303835 -2.556408 -6.499007 -0.278335 -7.579086 2.170343 -5.889229 3.906164 -36.093445 -27.566982 -0.091622 -0.000000 -0.002529 5.955824 -11.233291 0.275254 -0.016083 -0.000000 -0.306873 2.844429 4.894237 -0.270082 -10.128927 2.530459 -2.820381 2.481208 32.638312 22.766182 
-0.040450 -0.020751 0.628916 -0.000000 0.000000 -1.964016 -0.000000 0.000000 0.000000 10.630376 1.457834 -0.058943 9.999347 0.091869 0.748135 -0.000000 0.026889 0.218996 47.347616 4.659095 1.422497 -0.000000 0.002647 0.151644 -9.557471 -0.000000 -0.000001 0.000000 0.026889 0.218996 -1.788409 0.003428 0.219509 0.140893 0.000000 0.000000 -48.686852 74.093735 61.715137 0.213785 0.000097 0.000804 10.672493 33.797333 -32.860897 0.000000 0.026889 0.218996 -1.737549 0.003235 0.213290 -0.140893 -0.000000 -0.000000 -52.174685 -67.624194 -72.128949 -0.225596 0.000097 0.000804 6.181197 -42.168123 14.211401 -0.000000 0.000000 0.000000 -1.557537 0.000001 0.000039 -0.000000 0.000000 0.000000 -1.557499 0.000000 0.000000 0.091623 -0.000000 0.002491 7.621867 3.485944 0.168028 0.015923 -0.000000 -0.303835 -2.511895 -6.530134 -0.274167 -7.592064 2.165105 -5.879732 3.869310 -36.117767 -27.557027 -0.091623 0.000000 -0.002491 5.987885 -11.210236 0.275511 -0.016083 0.000000 -0.306873 2.809456 4.869035 -0.266144 -10.201303 2.511566 -2.766090 2.512564 32.654342 22.808462 
-0.040351 -0.020678 0.629032 -0.000000 0.000000 -2.048008 0.000000 0.000000 0.000000 10.737465 1.467525 -0.060708 9.999443 0.090702 0.738671 0.000000 0.026889 0.218996 47.301031 4.460251 1.477817 -0.000000 0.002647 0.151644 -9.767714 -0.000001 0.000001 -0.000000 0.026889 0.218996 -1.723638 0.003187 0.211589 0.140893 -0.000000 0.000000 -50.122015 73.592146 63.857733 0.213785 0.000097 0.000804 10.653341 34.636897 -31.939761 -0.000000 0.026889 0.218996 -1.672737 0.003002 0.205338 -0.140893 0.000000 -0.000000 -52.381339 -67.511707 -72.492971 -0.225596 0.000097 0.000804 6.607429 -42.462490 15.181631 0.000000 0.000000 0.000000 -1.528278 0.000000 -0.000024 0.000000 0.000000 0.000000 -1.528277 0.000000 0.000000 0.091624 0.000000 0.002445 7.610299 3.500943 0.166774 0.015923 0.000000 -0.303835 -2.483773 -6.572602 -0.272011 -7.570764 2.167073 -5.882000 3.839395 -36.148349 -27.560100 -0.091624 0.000000 -0.002444 6.019692 -11.166886 0.274659 -0.016083 -0.000000 -0.306873 2.728297 4.810009 -0.257054 -10.241400 2.478300 -2.693317 2.523820 32.606118 22.774489 
-0.040146 -0.020345 0.629182 -0.000000 0.000000 -2.220531 -0.000000 -0.000000 -0.000000 10.852191 1.486792 -0.062997 9.999291 0.100259 0.816651 0.000000 0.026889 0.218996 47.257918 4.319223 1.466994 0.000000 0.002647 0.151644 -9.901588 -0.000000 -0.000002 0.000000 0.026889 0.218996 -1.644273 0.002896 0.201832 0.140893 -0.000000 -0.000000 -51.123802 73.195176 65.400653 0.213785 0.000097 0.000804 10.914419 35.475972 -31.884833 0.000000 0.026889 0.218996 -1.593373 0.002720 0.195581 -0.140893 0.000000 0.000000 -52.661175 -67.416371 -72.927603 -0.225596 0.000097 0.000804 6.920186 -42.707817 15.869140 -0.000000 -0.000000 -0.000000 -1.468195 0.000001 0.000061 -0.000000 -0.000000 -0.000000 -1.468231 -0.000000 0.000000 0.091626 -0.000000 0.002348 7.587715 3.535100 0.164008 0.015923 -0.000000 -0.303835 -2.471767 -6.621799 -0.271753 -7.528604 2.117376 -5.778455 3.862760 -36.111183 -27.544003 -0.091626 -0.000000 -0.002349 6.007697 -11.094314 0.270238 -0.016083 -0.000000 -0.306873 2.639201 4.749687 -0.247276 -10.188953 2.389888 -2.540717 2.551363 32.483430 22.687433 
-0.039832 -0.019765 0.629348 -0.000000 0.000000 -2.505176 -0.000000 0.000000 -0.000000 10.988080 1.524008 -0.066385 9.999108 0.112095 0.912996 0.000000 0.026889 0.218996 47.156111 4.249522 1.384022 -0.000000 0.002647 0.151644 -10.007464 -0.000001 -0.000002 -0.000000 0.026889 0.218996 -1.593924 0.002722 0.195705 0.140893 0.000000 -0.000000 -51.771369 73.038833 66.304587 0.213785 0.000097 0.000804 11.142613 36.086417 -31.954948 -0.000000 0.026889 0.218996 -1.543028 0.002546 0.189442 -0.140893 -0.000000 0.000000 -52.775181 -67.384112 -73.097825 -0.225596 0.000097 0.000804 7.041279 -42.964806 16.057411 0.000000 0.000000 -0.000000 -1.360034 0.000001 0.000044 0.000000 0.000000 -0.000000 -1.360033 0.000000 0.000000 0.091631 -0.000000 0.002175 7.557566 3.593754 0.159475 0.015923 0.000000 -0.303835 -2.448705 -6.679670 -0.270446 -7.478746 2.004781 -5.547204 3.939006 -35.997757 -27.499935 -0.091631 0.000000 -0.002176 5.936867 -11.002734 0.262217 -0.016083 0.000000 -0.306873 2.572147 4.726456 -0.240472 -10.036875 2.242072 -2.300797 2.636322 32.370971 22.660766 
-0.039497 -0.019127 0.629475 -0.000000 0.000000 -2.807931 0.000000 0.000000 -0.000000 11.126778 1.568048 -0.070204 9.999014 0.121847 0.992434 0.000000 0.026889 0.218996 47.028499 4.154064 1.226560 0.000000 0.002647 0.151644 -10.184767 0.000000 0.000002 -0.000000 0.026889 0.218996 -1.579306 0.002672 0.193906 0.140893 -0.000000 0.000000 -52.377162 73.008773 67.038703 0.213785 0.000097 0.000804 10.932782 36.292804 -31.152134 -0.000000 0.026889 0.218996 -1.528373 0.002501 0.187603 -0.140893 0.000000 -0.000000 -52.714679 -67.409910 -72.998576 -0.225596 0.000097 0.000804 7.074153 -43.225972 16.019797 0.000000 0.000000 0.000000 -1.230449 0.000000 0.000006 0.000000 0.000000 0.000000 -1.230485 -0.000000 0.000000 0.091635 -0.000000 0.001968 7.520085 3.663152 0.154114 0.015923 -0.000000 -0.303835 -2.399796 -6.738600 -0.266271 -7.417120 1.881262 -5.292371 4.029023 -35.873093 -27.458042 -0.091635 0.000000 -0.001968 5.863574 -10.918019 0.254564 -0.016083 -0.000000 -0.306873 2.495120 4.737016 -0.233496 -9.839106 2.083657 -2.050293 2.760648 32.339993 22.742597 
-0.039264 -0.018633 0.629526 -0.000000 0.000000 -3.033807 0.000000 0.000000 0.000000 11.216759 1.603917 -0.073073 9.998854 0.127300 1.036823 0.000000 0.026889 0.218996 46.997630 4.004498 1.015334 0.000000 0.002647 0.151644 -10.515680 -0.000000 0.000001 -0.000000 0.026889 0.218996 -1.586080 0.002690 0.194664 0.140893 0.000000 0.000000 -52.977047 72.974110 67.768625 0.213785 0.000097 0.000804 10.383868 36.114007 -29.726653 -0.000000 0.026889 0.218996 -1.535157 0.002522 0.188473 -0.140893 -0.000000 0.000000 -52.605642 -67.447783 -72.828538 -0.225596 0.000097 0.000804 6.864171 -43.293257 15.462836 0.000000 0.000000 0.000000 -1.132248 -0.000000 -0.000029 0.000000 0.000000 0.000000 -1.132248 -0.000000 0.000000 0.091639 -0.000000 0.001811 7.481648 3.720507 0.149568 0.015923 0.000000 -0.303835 -2.340391 -6.782657 -0.260572 -7.331680 1.796470 -5.112876 4.084623 -35.808363 -27.444906 -0.091639 0.000000 -0.001811 5.858605 -10.855294 0.251084 -0.016083 -0.000000 -0.306873 2.353596 4.737759 -0.220265 -9.666735 1.963744 -1.864595 2.852574 32.371668 22.852141 
-0.039189 -0.018307 0.629522 -0.000000 0.000000 -3.197205 -0.000000 0.000000 0.000000 11.217822 1.628970 -0.074230 9.998925 0.123337 1.004590 0.000000 0.026889 0.218996 47.130132 3.927469 0.868824 -0.000000 0.002647 0.151644 -10.953165 -0.000001 0.000002 -0.000000 0.026889 0.218996 -1.592769 0.002718 0.195618 0.140893 0.000000 -0.000000 -53.474965 72.906723 68.410437 0.213785 0.000097 0.000804 9.991024 35.870306 -28.794363 -0.000000 0.026889 0.218996 -1.541930 0.002546 0.189344 -0.140893 -0.000000 -0.000000 -52.572687 -67.479694 -72.756118 -0.225596 0.000097 0.000804 6.174579 -42.960633 13.865415 0.000000 -0.000000 0.000000 -1.090621 -0.000000 0.000017 0.000000 -0.000000 0.000000 -1.090584 -0.000000 0.000000 0.091640 -0.000000 0.001745 7.453615 3.759148 0.146485 0.015923 0.000000 -0.303835 -2.290864 -6.809614 -0.255592 -7.219443 1.747140 -5.001928 4.075888 -35.816009 -27.444393 -0.091640 -0.000000 -0.001744 5.929417 -10.810980 0.251792 -0.016083 0.000000 -0.306873 2.147480 4.698698 -0.200242 -9.562606 1.879699 -1.729548 2.850586 32.438679 22.910807 
-0.039242 -0.018030 0.629515 -0.000000 0.000000 -3.366798 -0.000000 0.000000 -0.000000 11.139373 1.650839 -0.074094 9.999185 0.107666 0.876992 0.000000 0.026889 0.218996 47.351441 4.014193 0.930389 0.000000 0.002647 0.151644 -11.367478 0.000000 -0.000001 -0.000000 0.026889 0.218996 -1.567950 0.002634 0.192469 0.140893 0.000000 -0.000000 -53.846220 72.809905 68.933595 0.213785 0.000097 0.000804 9.973286 35.896247 -28.718961 -0.000000 0.026889 0.218996 -1.517049 0.002465 0.186220 -0.140893 -0.000000 -0.000000 -52.672363 -67.543030 -72.811012 -0.225596 0.000097 0.000804 5.230837 -42.332068 11.686452 -0.000000 0.000000 0.000000 -1.085478 -0.000000 0.000052 -0.000000 0.000000 0.000000 -1.085515 -0.000000 -0.000000 0.091640 -0.000000 0.001736 7.439208 3.791270 0.144109 0.015923 -0.000000 -0.303835 -2.253048 -6.836744 -0.251904 -7.091541 1.707137 -4.907791 4.014399 -35.854060 -27.424726 -0.091640 0.000000 -0.001736 6.026497 -10.780172 0.254276 -0.016083 0.000000 -0.306873 1.931617 4.636922 -0.179074 -9.529127 1.794669 -1.575266 2.740333 32.580989 22.942513 
-0.039353 -0.017692 0.629545 -0.000000 0.000000 -3.565654 -0.000000 0.000000 -0.000000 11.032465 1.675315 -0.073627 9.999451 0.086754 0.706557 0.000000 0.026889 0.218996 47.543615 4.190932 1.233684 0.000000 0.002647 0.151644 -11.741779 0.000000 -0.000000 0.000000 0.026889 0.218996 -1.485659 0.002366 0.182318 0.140893 -0.000000 0.000000 -53.874415 72.741214 69.032865 0.213785 0.000097 0.000804 10.122509 36.142670 -28.937684 -0.000000 0.026889 0.218996 -1.434695 0.002206 0.176097 -0.140893 -0.000000 -0.000000 -52.849207 -67.690658 -72.871862 -0.225596 0.000097 0.000804 4.566704 -41.826822 10.123414 0.000000 0.000000 -0.000000 -1.087342 -0.000000 0.000038 0.000000 0.000000 -0.000000 -1.087379 -0.000000 0.000000 0.091640 -0.000000 0.001739 7.423373 3.828896 0.141356 0.015923 -0.000000 -0.303835 -2.210580 -6.877138 -0.247928 -6.973683 1.667656 -4.815262 3.946033 -35.871399 -27.377408 -0.091640 0.000000 -0.001739 6.097962 -10.764133 0.256427 -0.016083 -0.000000 -0.306873 1.759141 4.590868 -0.162378 -9.539280 1.684764 -1.363051 2.551461 32.837343 23.009886 
